<svg width="164" height="47" viewBox="0 0 164 47" fill="none" xmlns="http://www.w3.org/2000/svg">
<g clip-path="url(#clip0_2_32840)">
<path d="M39.0121 23.4568L32.8582 29.6799C31.933 30.6155 31.933 32.1604 32.8582 33.0961L38.3881 38.6882C38.7324 39.0364 38.7324 39.6239 38.3881 39.972L31.8039 46.6304C31.4596 46.9785 30.8787 46.9785 30.5344 46.6304L24.1869 40.2114C23.6274 39.6456 23.3047 38.8841 23.3047 38.079V23.4568L31.1584 15.5146L38.3666 8.20349C38.7109 7.85535 39.2918 7.85535 39.6361 8.20349L46.2203 14.8618C46.5646 15.21 46.5646 15.7975 46.2203 16.1456L39.0121 23.4568Z" fill="#8DF31E"/>
<path d="M23.3027 8.81251V23.4347L15.449 31.3769L8.24083 38.688C7.89655 39.0361 7.31559 39.0361 6.97132 38.688L0.387111 32.0296C0.0428381 31.6815 0.0428381 31.094 0.387111 30.7459L7.59532 23.4347L13.7492 17.2116C14.6744 16.2759 14.6744 14.731 13.7492 13.7954L8.21929 8.20324C7.87502 7.85509 7.87502 7.26761 8.21929 6.91947L14.8035 0.261111C15.1478 -0.087037 15.7287 -0.087037 16.073 0.261111L22.4205 6.68009C22.98 7.24583 23.3027 8.00742 23.3027 8.81251Z" fill="#8DF31E"/>
<path d="M66.4964 37.9855C63.5937 37.9855 61.1057 36.9633 59.0582 34.919C57.0108 32.8748 56 30.3849 56 27.3971C56 24.4355 57.0108 21.9195 59.0582 19.8752C61.1057 17.8309 63.5678 16.835 66.4964 16.835C69.425 16.835 71.9131 17.8571 73.9346 19.8752C75.9561 21.9195 76.9669 24.4093 76.9669 27.3971C76.9669 30.3587 75.9561 32.8748 73.9346 34.919C71.9131 36.9633 69.4509 37.9855 66.4964 37.9855ZM62.0905 31.9574C63.2827 33.163 64.76 33.7658 66.4964 33.7658C68.2328 33.7658 69.7101 33.163 70.9023 31.9574C72.0945 30.7518 72.6906 29.2317 72.6906 27.4233C72.6906 25.6149 72.0945 24.0948 70.9023 22.8892C69.7101 21.6836 68.2328 21.0808 66.4964 21.0808C64.76 21.0808 63.2827 21.6836 62.0905 22.8892C60.8983 24.0948 60.3022 25.6149 60.3022 27.4233C60.3022 29.2317 60.8983 30.7518 62.0905 31.9574Z" fill="white"/>
<path d="M89.5902 16.8604C91.8709 16.8604 93.711 17.5942 95.1105 19.0619C96.51 20.5296 97.2098 22.5477 97.2098 25.1161V37.4605H92.9076V25.5617C92.9076 24.0678 92.5188 22.9146 91.7154 22.1021C90.9119 21.2896 89.8234 20.8965 88.4498 20.8965C86.9466 20.8965 85.7285 21.3683 84.7955 22.3118C83.8625 23.2553 83.396 24.723 83.396 26.6625V37.4343H79.0938V17.3583H83.396V19.9268C84.7178 17.8825 86.7652 16.8604 89.5902 16.8604Z" fill="white"/>
<path d="M103.842 29.2571C104.153 30.7772 104.878 31.9566 106.019 32.7691C107.159 33.5816 108.558 34.0009 110.191 34.0009C112.472 34.0009 114.182 33.1622 115.323 31.5111L118.848 33.6078C116.878 36.517 113.975 37.9846 110.139 37.9846C106.9 37.9846 104.308 36.9887 102.312 34.9969C100.317 33.005 99.332 30.4889 99.332 27.4225C99.332 24.4347 100.317 21.9186 102.261 19.9006C104.23 17.8825 106.744 16.8604 109.802 16.8604C112.705 16.8604 115.115 17.8825 116.982 19.953C118.848 22.0235 119.781 24.5133 119.781 27.4749C119.781 27.9205 119.729 28.5233 119.625 29.2833H103.842V29.2571ZM103.816 25.7189H115.504C115.219 24.094 114.545 22.8622 113.509 22.0235C112.472 21.1848 111.228 20.7655 109.828 20.7655C108.247 20.7655 106.926 21.211 105.863 22.1021C104.775 22.9932 104.101 24.1988 103.816 25.7189Z" fill="white"/>
<path d="M133.205 16.8608C135.926 16.8608 138.259 17.8829 140.203 19.901C142.146 21.9453 143.105 24.4351 143.105 27.4229C143.105 30.3583 142.146 32.8744 140.203 34.9187C138.259 36.9629 135.926 37.9851 133.205 37.9851C130.173 37.9851 127.866 36.8581 126.259 34.5779V37.4609H121.957V9.33887H126.259V20.2155C127.866 17.9878 130.173 16.8608 133.205 16.8608ZM128.048 32.0095C129.24 33.2413 130.743 33.8441 132.531 33.8441C134.319 33.8441 135.823 33.2413 137.015 32.0095C138.207 30.8039 138.803 29.2576 138.803 27.3967C138.803 25.5359 138.207 24.0158 137.015 22.784C135.823 21.5784 134.319 20.9494 132.531 20.9494C130.717 20.9494 129.24 21.5522 128.048 22.784C126.855 24.0158 126.259 25.5359 126.259 27.3967C126.259 29.2576 126.855 30.8039 128.048 32.0095Z" fill="white"/>
<path d="M149.303 13.5322C148.759 14.0826 148.111 14.3447 147.385 14.3447C146.634 14.3447 146.012 14.0826 145.468 13.5322C144.923 12.9818 144.664 12.3266 144.664 11.5927C144.664 10.8327 144.923 10.2037 145.468 9.65329C145.986 9.1029 146.634 8.84082 147.411 8.84082C148.189 8.84082 148.837 9.1029 149.355 9.65329C149.873 10.2037 150.158 10.8589 150.158 11.5927C150.133 12.3266 149.848 12.9818 149.303 13.5322ZM145.234 37.4608V17.3849H149.536V37.4608H145.234Z" fill="white"/>
<path d="M163.038 21.5521H158.114V31.197C158.114 32.0356 158.295 32.6122 158.658 32.9791C159.021 33.3461 159.565 33.5295 160.316 33.582C161.042 33.6344 161.949 33.6082 163.038 33.5558V37.4608C159.746 37.854 157.388 37.5657 155.962 36.596C154.537 35.6262 153.811 33.8178 153.811 31.197V21.5521H151.66V17.3849H153.811V13.0342L158.114 11.75V17.3849H163.038V21.5521Z" fill="white"/>
</g>
<defs>
<clipPath id="clip0_2_32840">
<rect width="164" height="47" fill="white"/>
</clipPath>
</defs>
</svg>
